<?xml version="1.0" standalone="no"?>
<!DOCTYPE svg PUBLIC "-//W3C//DTD SVG 20010904//EN"
 "http://www.w3.org/TR/2001/REC-SVG-20010904/DTD/svg10.dtd">
<svg version="1.0" xmlns="http://www.w3.org/2000/svg"
 width="160.000000pt" height="160.000000pt" viewBox="0 0 160.000000 160.000000"
 preserveAspectRatio="xMidYMid meet">

<g transform="translate(0.000000,160.000000) scale(0.100000,-0.100000)"
fill="#000000" stroke="none">
<path d="M655 1484 c-38 -8 -113 -36 -165 -61 -80 -38 -109 -59 -181 -132 -72
-72 -94 -102 -132 -181 -50 -103 -77 -211 -77 -310 0 -99 27 -207 77 -310 38
-79 60 -109 132 -181 72 -73 101 -94 181 -132 103 -50 213 -77 310 -77 97 0
207 27 310 77 80 38 109 59 181 132 72 72 94 102 132 181 102 209 102 411 0
620 -38 79 -60 109 -132 181 -72 73 -101 94 -181 132 -153 74 -300 93 -455 61z
m274 -149 c35 -9 91 -30 125 -48 62 -33 186 -140 186 -161 0 -6 -15 -23 -34
-38 l-35 -28 -55 55 c-100 100 -250 150 -381 128 -143 -25 -279 -123 -334
-241 l-25 -53 287 -286 286 -287 53 25 c96 44 183 146 224 261 l13 38 -119 0
-120 0 0 50 0 50 175 0 175 0 0 -32 c-1 -117 -64 -255 -164 -354 -67 -67 -171
-130 -242 -147 -18 -4 -83 57 -352 327 l-331 331 19 54 c62 172 216 314 388
355 76 19 183 19 261 1z m-404 -816 l270 -271 -58 7 c-129 15 -228 64 -323
159 -73 73 -103 120 -134 212 -17 49 -37 164 -29 164 2 0 126 -122 274 -271z"/>
</g>
</svg>
