<svg width="200" height="200" xmlns="http://www.w3.org/2000/svg" xmlns:svg="http://www.w3.org/2000/svg" preserveAspectRatio="xMidYMid meet">
 <metadata>Created by potrace 1.15, written by Peter Selinger 2001-2017</metadata>
 <g class="layer">
  <title>Layer 1</title>
  <g fill="#000000" id="svg_1" transform="translate(0 200) scale(0.1 -0.1)">
   <path d="m435,1711c0,-2 143,-138 318,-302c174,-163 335,-314 356,-335l39,-38l-383,-388l-383,-388l134,-3l133,-3l348,348l348,348l0,-348l0,-347l100,0l100,0l0,730l0,730l-100,0l-100,0l-2,-302l-3,-302l-320,302l-320,302l-132,0c-73,0 -133,-2 -133,-4z" fill="#141633" id="svg_2"/>
  </g>
 </g>
</svg>
